<svg version="1.1" xmlns="http://www.w3.org/2000/svg" viewBox="0 0 485.4967075151618 661.5972173589813" width="485.4967075151618" height="661.5972173589813">
  <!-- svg-source:excalidraw -->
  
  <defs>
    <style class="style-fonts">
      
    </style>
    
  </defs>
  <g stroke-linecap="round" transform="translate(10 63.01019426966701) rotate(0 232.74835335983477 21.496965123512354)"><path d="M10.75 0 C129.03 0, 247.32 0, 454.75 0 C461.91 0, 465.5 3.58, 465.5 10.75 C465.5 15.17, 465.5 19.6, 465.5 32.25 C465.5 39.41, 461.91 42.99, 454.75 42.99 C318.62 42.99, 182.49 42.99, 10.75 42.99 C3.58 42.99, 0 39.41, 0 32.25 C0 24.5, 0 16.76, 0 10.75 C0 3.58, 3.58 0, 10.75 0" stroke="none" stroke-width="0" fill="#e9ecef"></path><path d="M10.75 0 C184.81 0, 358.87 0, 454.75 0 M10.75 0 C173.82 0, 336.89 0, 454.75 0 M454.75 0 C461.91 0, 465.5 3.58, 465.5 10.75 M454.75 0 C461.91 0, 465.5 3.58, 465.5 10.75 M465.5 10.75 C465.5 16.05, 465.5 21.35, 465.5 32.25 M465.5 10.75 C465.5 16.24, 465.5 21.73, 465.5 32.25 M465.5 32.25 C465.5 39.41, 461.91 42.99, 454.75 42.99 M465.5 32.25 C465.5 39.41, 461.91 42.99, 454.75 42.99 M454.75 42.99 C359.36 42.99, 263.98 42.99, 10.75 42.99 M454.75 42.99 C279.73 42.99, 104.71 42.99, 10.75 42.99 M10.75 42.99 C3.58 42.99, 0 39.41, 0 32.25 M10.75 42.99 C3.58 42.99, 0 39.41, 0 32.25 M0 32.25 C0 23.83, 0 15.42, 0 10.75 M0 32.25 C0 24.19, 0 16.14, 0 10.75 M0 10.75 C0 3.58, 3.58 0, 10.75 0 M0 10.75 C0 3.58, 3.58 0, 10.75 0" stroke="#e9ecef" stroke-width="2" fill="none"></path></g><g stroke-linecap="round" transform="translate(10.000000765242135 10) rotate(0 232.7483533598347 21.496965123512354)"><path d="M10.75 0 C126.24 0, 241.73 0, 454.75 0 M10.75 0 C133.75 0, 256.75 0, 454.75 0 M454.75 0 C461.91 0, 465.5 3.58, 465.5 10.75 M454.75 0 C461.91 0, 465.5 3.58, 465.5 10.75 M465.5 10.75 C465.5 18.63, 465.5 26.5, 465.5 32.25 M465.5 10.75 C465.5 16.22, 465.5 21.68, 465.5 32.25 M465.5 32.25 C465.5 39.41, 461.91 42.99, 454.75 42.99 M465.5 32.25 C465.5 39.41, 461.91 42.99, 454.75 42.99 M454.75 42.99 C331.86 42.99, 208.97 42.99, 10.75 42.99 M454.75 42.99 C308.3 42.99, 161.85 42.99, 10.75 42.99 M10.75 42.99 C3.58 42.99, 0 39.41, 0 32.25 M10.75 42.99 C3.58 42.99, 0 39.41, 0 32.25 M0 32.25 C0 25.69, 0 19.13, 0 10.75 M0 32.25 C0 25.94, 0 19.64, 0 10.75 M0 10.75 C0 3.58, 3.58 0, 10.75 0 M0 10.75 C0 3.58, 3.58 0, 10.75 0" stroke="#e9ecef" stroke-width="2" fill="none"></path></g><g stroke-linecap="round" transform="translate(10.00000079549227 116.02038878587962) rotate(0 232.74835335983477 138.7626857820652)"><path d="M32 0 C141.2 0, 250.39 0, 433.5 0 M32 0 C158.95 0, 285.9 0, 433.5 0 M433.5 0 C454.83 0, 465.5 10.67, 465.5 32 M433.5 0 C454.83 0, 465.5 10.67, 465.5 32 M465.5 32 C465.5 88.82, 465.5 145.64, 465.5 245.53 M465.5 32 C465.5 105.14, 465.5 178.28, 465.5 245.53 M465.5 245.53 C465.5 266.86, 454.83 277.53, 433.5 277.53 M465.5 245.53 C465.5 266.86, 454.83 277.53, 433.5 277.53 M433.5 277.53 C292.74 277.53, 151.98 277.53, 32 277.53 M433.5 277.53 C330.47 277.53, 227.45 277.53, 32 277.53 M32 277.53 C10.67 277.53, 0 266.86, 0 245.53 M32 277.53 C10.67 277.53, 0 266.86, 0 245.53 M0 245.53 C0 196.29, 0 147.05, 0 32 M0 245.53 C0 192.69, 0 139.85, 0 32 M0 32 C0 10.67, 10.67 0, 32 0 M0 32 C0 10.67, 10.67 0, 32 0" stroke="#e9ecef" stroke-width="2" fill="none"></path></g><g stroke-linecap="round" transform="translate(47.81601004740526 352.92443798037993) rotate(0 49.03566197243924 12.596316836956873)"><path d="M6.3 0 C27.37 0, 48.45 0, 91.77 0 M6.3 0 C28.56 0, 50.81 0, 91.77 0 M91.77 0 C95.97 0, 98.07 2.1, 98.07 6.3 M91.77 0 C95.97 0, 98.07 2.1, 98.07 6.3 M98.07 6.3 C98.07 10.6, 98.07 14.9, 98.07 18.89 M98.07 6.3 C98.07 9.94, 98.07 13.58, 98.07 18.89 M98.07 18.89 C98.07 23.09, 95.97 25.19, 91.77 25.19 M98.07 18.89 C98.07 23.09, 95.97 25.19, 91.77 25.19 M91.77 25.19 C72.9 25.19, 54.02 25.19, 6.3 25.19 M91.77 25.19 C74.49 25.19, 57.2 25.19, 6.3 25.19 M6.3 25.19 C2.1 25.19, 0 23.09, 0 18.89 M6.3 25.19 C2.1 25.19, 0 23.09, 0 18.89 M0 18.89 C0 14.18, 0 9.46, 0 6.3 M0 18.89 C0 14.34, 0 9.78, 0 6.3 M0 6.3 C0 2.1, 2.1 0, 6.3 0 M0 6.3 C0 2.1, 2.1 0, 6.3 0" stroke="#e9ecef" stroke-width="2" fill="none"></path></g><g stroke-linecap="round" transform="translate(158.63361152450318 352.92443764142274) rotate(0 152.9552758773334 12.596316836956873)"><path d="M6.3 0 C104.18 0, 202.05 0, 299.61 0 M6.3 0 C98.98 0, 191.65 0, 299.61 0 M299.61 0 C303.81 0, 305.91 2.1, 305.91 6.3 M299.61 0 C303.81 0, 305.91 2.1, 305.91 6.3 M305.91 6.3 C305.91 10.36, 305.91 14.42, 305.91 18.89 M305.91 6.3 C305.91 9.23, 305.91 12.15, 305.91 18.89 M305.91 18.89 C305.91 23.09, 303.81 25.19, 299.61 25.19 M305.91 18.89 C305.91 23.09, 303.81 25.19, 299.61 25.19 M299.61 25.19 C194.26 25.19, 88.92 25.19, 6.3 25.19 M299.61 25.19 C233.93 25.19, 168.26 25.19, 6.3 25.19 M6.3 25.19 C2.1 25.19, 0 23.09, 0 18.89 M6.3 25.19 C2.1 25.19, 0 23.09, 0 18.89 M0 18.89 C0 15.05, 0 11.21, 0 6.3 M0 18.89 C0 15.21, 0 11.53, 0 6.3 M0 6.3 C0 2.1, 2.1 0, 6.3 0 M0 6.3 C0 2.1, 2.1 0, 6.3 0" stroke="#e9ecef" stroke-width="2" fill="none"></path></g><g stroke-linecap="round"><g transform="translate(63.111537635138575 163.37984250954878) rotate(0 201.9909447142207 0)"><path d="M0.33 0.9 C67.54 0.9, 336.84 1.2, 404.2 1.06 M-0.96 0.32 C66.04 0.54, 335.87 -0.69, 403.37 -0.51" stroke="#e9ecef" stroke-width="2" fill="none"></path></g></g><mask></mask><g stroke-linecap="round"><g transform="translate(62.74307087067052 199.38502685509843) rotate(0 181.3312751424968 0)"><path d="M0.94 -0.85 C61.12 -0.91, 301.69 0.08, 362.02 0.28 M-0.02 1.32 C60.47 0.82, 304.01 -1.17, 364.4 -1.69" stroke="#e9ecef" stroke-width="2" fill="none"></path></g></g><mask></mask><g stroke-linecap="round"><g transform="translate(62.15482362299019 219.23570873482527) rotate(0 193.92179414505472 0)"><path d="M0.43 -0.28 C64.83 -0.1, 322.35 0.37, 387.02 0.53 M-0.81 -1.47 C63.92 -1.61, 324.51 -1.34, 389.29 -1.32" stroke="#e9ecef" stroke-width="2" fill="none"></path></g></g><mask></mask><g stroke-linecap="round"><g transform="translate(62.154823196445136 236.7354208360312) rotate(0 129.8905259855132 0)"><path d="M-0.26 0.44 C43.07 0.19, 216.11 -0.92, 259.63 -0.95 M1.8 -0.37 C44.99 -0.56, 215.45 -0.25, 258.61 0.09" stroke="#e9ecef" stroke-width="2" fill="none"></path></g></g><mask></mask><g stroke-linecap="round"><g transform="translate(63.5883165044761 255.10507866403088) rotate(0 100.98201371944896 0)"><path d="M0.04 -0.45 C33.46 -0.43, 167.05 -0.26, 200.89 0.01 M-1.39 -1.74 C32.34 -1.5, 168.99 1.35, 203.04 1.55" stroke="#e9ecef" stroke-width="2" fill="none"></path></g></g><mask></mask><g stroke-linecap="round"><g transform="translate(65.45850009386879 272.943187768091) rotate(0 95.0983688816624 0)"><path d="M1.09 -0.64 C33.1 -0.67, 159.43 0.14, 190.96 0.25 M0.21 1.64 C32.22 1.19, 158.86 -1.69, 190.42 -1.74" stroke="#e9ecef" stroke-width="2" fill="none"></path></g></g><mask></mask><g stroke-linecap="round"><g transform="translate(66.31190582237355 292.6893057915356) rotate(0 58.83215006950991 0)"><path d="M-0.96 0.43 C18.59 0.12, 96.85 -0.55, 116.75 -0.68 M0.73 -0.39 C20.7 -0.04, 99.42 0.3, 118.98 0.49" stroke="#e9ecef" stroke-width="2" fill="none"></path></g></g><mask></mask><g stroke-linecap="round"><g transform="translate(47.29174183414534 320.62977822431685) rotate(0 63.09377129119059 0)"><path d="M-0.93 1.13 C20.12 0.81, 105.1 -0.52, 126.36 -0.78 M0.78 0.67 C21.69 1.01, 104.62 0.35, 125.5 0.35" stroke="#e9ecef" stroke-width="2" fill="none"></path></g></g><mask></mask><g stroke-linecap="round"><g transform="translate(62.72338430440334 180.0070395615307) rotate(0 9.95278686009641 0)"><path d="M-0.35 0.15 C2.86 0.12, 16.07 -0.4, 19.53 -0.45 M0.47 -0.25 C3.83 -0.2, 17.26 -0.09, 20.57 0.02" stroke="#e9ecef" stroke-width="2" fill="none"></path></g></g><mask></mask><g stroke-linecap="round"><g transform="translate(46.491231616694904 135.7417000668375) rotate(0 36.944480716983094 0)"><path d="M0.5 -0.68 C12.97 -0.66, 61.98 -1.35, 74.16 -1.08 M-0.69 1.58 C11.7 1.81, 61.13 0.31, 73.35 -0.11" stroke="#e9ecef" stroke-width="2" fill="none"></path></g></g><mask></mask><g stroke-linecap="round" transform="translate(21.23802295877374 129.2979892519059) rotate(0 8.043610508506617 8.043610508506589)"><path d="M4.02 0 C6.91 0, 9.8 0, 12.07 0 M4.02 0 C6.17 0, 8.31 0, 12.07 0 M12.07 0 C14.75 0, 16.09 1.34, 16.09 4.02 M12.07 0 C14.75 0, 16.09 1.34, 16.09 4.02 M16.09 4.02 C16.09 6.13, 16.09 8.23, 16.09 12.07 M16.09 4.02 C16.09 7.18, 16.09 10.33, 16.09 12.07 M16.09 12.07 C16.09 14.75, 14.75 16.09, 12.07 16.09 M16.09 12.07 C16.09 14.75, 14.75 16.09, 12.07 16.09 M12.07 16.09 C9.45 16.09, 6.83 16.09, 4.02 16.09 M12.07 16.09 C9.67 16.09, 7.27 16.09, 4.02 16.09 M4.02 16.09 C1.34 16.09, 0 14.75, 0 12.07 M4.02 16.09 C1.34 16.09, 0 14.75, 0 12.07 M0 12.07 C0 10.36, 0 8.65, 0 4.02 M0 12.07 C0 9.4, 0 6.74, 0 4.02 M0 4.02 C0 1.34, 1.34 0, 4.02 0 M0 4.02 C0 1.34, 1.34 0, 4.02 0" stroke="#e9ecef" stroke-width="2" fill="none"></path></g><g stroke-linecap="round" transform="translate(21.23802282637257 76.46354862460043) rotate(0 8.04361050850656 8.043610508506589)"><path d="M4.02 0 C6.12 0, 8.23 0, 12.07 0 M4.02 0 C6.02 0, 8.02 0, 12.07 0 M12.07 0 C14.75 0, 16.09 1.34, 16.09 4.02 M12.07 0 C14.75 0, 16.09 1.34, 16.09 4.02 M16.09 4.02 C16.09 6.96, 16.09 9.89, 16.09 12.07 M16.09 4.02 C16.09 5.76, 16.09 7.5, 16.09 12.07 M16.09 12.07 C16.09 14.75, 14.75 16.09, 12.07 16.09 M16.09 12.07 C16.09 14.75, 14.75 16.09, 12.07 16.09 M12.07 16.09 C9.91 16.09, 7.76 16.09, 4.02 16.09 M12.07 16.09 C10.4 16.09, 8.74 16.09, 4.02 16.09 M4.02 16.09 C1.34 16.09, 0 14.75, 0 12.07 M4.02 16.09 C1.34 16.09, 0 14.75, 0 12.07 M0 12.07 C0 8.95, 0 5.83, 0 4.02 M0 12.07 C0 9.16, 0 6.25, 0 4.02 M0 4.02 C0 1.34, 1.34 0, 4.02 0 M0 4.02 C0 1.34, 1.34 0, 4.02 0" stroke="#f8f9fa" stroke-width="2" fill="none"></path></g><g stroke-linecap="round" transform="translate(21.23802338490873 23.629108635845284) rotate(0 8.04361050850656 8.043610508506589)"><path d="M4.02 0 C6.06 0, 8.11 0, 12.07 0 M4.02 0 C6.04 0, 8.05 0, 12.07 0 M12.07 0 C14.75 0, 16.09 1.34, 16.09 4.02 M12.07 0 C14.75 0, 16.09 1.34, 16.09 4.02 M16.09 4.02 C16.09 6.03, 16.09 8.04, 16.09 12.07 M16.09 4.02 C16.09 5.81, 16.09 7.59, 16.09 12.07 M16.09 12.07 C16.09 14.75, 14.75 16.09, 12.07 16.09 M16.09 12.07 C16.09 14.75, 14.75 16.09, 12.07 16.09 M12.07 16.09 C9.26 16.09, 6.45 16.09, 4.02 16.09 M12.07 16.09 C10.04 16.09, 8.01 16.09, 4.02 16.09 M4.02 16.09 C1.34 16.09, 0 14.75, 0 12.07 M4.02 16.09 C1.34 16.09, 0 14.75, 0 12.07 M0 12.07 C0 10.28, 0 8.49, 0 4.02 M0 12.07 C0 8.98, 0 5.9, 0 4.02 M0 4.02 C0 1.34, 1.34 0, 4.02 0 M0 4.02 C0 1.34, 1.34 0, 4.02 0" stroke="#e9ecef" stroke-width="2" fill="none"></path></g><g stroke-linecap="round"><g transform="translate(46.762178915906816 84.5071590885695) rotate(0 55.047423007640475 0)"><path d="M0.73 0.12 C18.71 0.05, 90.64 -0.52, 108.98 -0.53 M-0.35 -0.86 C17.89 -0.76, 92.66 0.35, 111.1 0.74" stroke="#f8f9fa" stroke-width="2" fill="none"></path></g></g><mask></mask><g stroke-linecap="round"><g transform="translate(47.0934808385158 31.672718987794042) rotate(0 24.577942484052357 0)"><path d="M0.49 0.35 C8.61 0.29, 40.81 -0.46, 48.94 -0.55 M0.08 0.06 C8.08 0.06, 40.24 -0.17, 48.4 -0.13" stroke="#e9ecef" stroke-width="2" fill="none"></path></g></g><mask></mask><g stroke-linecap="round"><g transform="translate(108.82004481963281 566.4180078294859) rotate(0 32.53373689363622 42.58960476474772)"><path d="M0 0 C10.84 14.2, 54.22 70.98, 65.07 85.18" stroke="#f8f9fa" stroke-width="2.5" fill="none" stroke-dasharray="8 10"></path></g><g transform="translate(108.82004481963281 566.4180078294859) rotate(0 32.53373689363622 42.58960476474772)"><path d="M44.01 71.7 C49.74 75.37, 55.47 79.03, 65.07 85.18" stroke="#f8f9fa" stroke-width="2.5" fill="none"></path></g><g transform="translate(108.82004481963281 566.4180078294859) rotate(0 32.53373689363622 42.58960476474772)"><path d="M57.6 61.32 C59.63 67.81, 61.66 74.3, 65.07 85.18" stroke="#f8f9fa" stroke-width="2.5" fill="none"></path></g></g><mask></mask><g stroke-linecap="round"><g transform="translate(387.93205389144134 563.5466315573823) rotate(0 -32.53373689363622 42.58960476474772)"><path d="M0 0 C-10.84 14.2, -54.22 70.98, -65.07 85.18" stroke="#f8f9fa" stroke-width="2.5" fill="none" stroke-dasharray="8 10"></path></g><g transform="translate(387.93205389144134 563.5466315573823) rotate(0 -32.53373689363622 42.58960476474772)"><path d="M-57.6 61.32 C-60.53 70.69, -63.47 80.06, -65.07 85.18" stroke="#f8f9fa" stroke-width="2.5" fill="none"></path></g><g transform="translate(387.93205389144134 563.5466315573823) rotate(0 -32.53373689363622 42.58960476474772)"><path d="M-44.01 71.7 C-52.28 76.99, -60.55 82.29, -65.07 85.18" stroke="#f8f9fa" stroke-width="2.5" fill="none"></path></g></g><mask></mask><g stroke-linecap="round"><g transform="translate(246.25044595611962 559.3197379617835) rotate(0 0 46.138739264877586)"><path d="M0 0 C0 15.38, 0 76.9, 0 92.28" stroke="#f8f9fa" stroke-width="2.5" fill="none" stroke-dasharray="8 10"></path></g><g transform="translate(246.25044595611962 559.3197379617835) rotate(0 0 46.138739264877586)"><path d="M-8.55 68.79 C-5.23 77.92, -1.9 87.06, 0 92.28" stroke="#f8f9fa" stroke-width="2.5" fill="none"></path></g><g transform="translate(246.25044595611962 559.3197379617835) rotate(0 0 46.138739264877586)"><path d="M8.55 68.79 C5.23 77.92, 1.9 87.06, 0 92.28" stroke="#f8f9fa" stroke-width="2.5" fill="none"></path></g></g><mask></mask></svg>